<svg id="Layer_1" viewBox="0 0 512 512" xmlns="http://www.w3.org/2000/svg" data-name="Layer 1"><path d="m235.178 216.211a10.855 10.855 0 0 0 -20.323 0l-20.925 55.989a6.971 6.971 0 0 0 13.059 4.88l3.341-10.085h28.046a6.464 6.464 0 0 0 1.284-.129l3.384 10.214a6.97 6.97 0 1 0 13.056-4.88zm-18.678 38.214 9.921-29.945 9.921 29.945z"/><path d="m202.965 216.239a6.971 6.971 0 0 0 -6.97-6.971h-42.572a6.971 6.971 0 0 0 0 13.942h14.315v51.427a6.97 6.97 0 1 0 13.94 0v-51.427h14.322a6.971 6.971 0 0 0 6.965-6.971z"/><path d="m297.1 267.065h-19.8v-50.826a6.97 6.97 0 1 0 -13.94 0v56.37a8.406 8.406 0 0 0 8.4 8.4h25.34a6.97 6.97 0 1 0 0-13.94z"/><path d="m338.962 241.494 20.638-19.946a6.873 6.873 0 0 0 -9.554-9.882l-25.735 26.764v-22.191a7.363 7.363 0 1 0 -14.726 0v58.4a7.363 7.363 0 1 0 14.726 0v-18.983l4.723-4.566 20.433 27.487a7.265 7.265 0 0 0 11.456-8.938z"/><path d="m256 0c-141.385 0-256 114.615-256 256s114.615 256 256 256 256-114.615 256-256-114.615-256-256-256zm0 358.935a185.433 185.433 0 0 1 -28.708-2.225l-57.987 40.667a3.674 3.674 0 0 1 -5.663-3.941l13.779-52.516c-40.928-20.55-68.088-56.675-68.088-97.814 0-63.971 65.667-115.829 146.667-115.829s146.667 51.858 146.667 115.829-65.667 115.829-146.667 115.829z"/></svg>